<?xml version="1.0" encoding="utf-8"?>
<!-- Generator: Adobe Illustrator 24.3.0, SVG Export Plug-In . SVG Version: 6.00 Build 0)  -->
<svg version="1.1" id="Layer_1" xmlns="http://www.w3.org/2000/svg" xmlns:xlink="http://www.w3.org/1999/xlink" x="0px" y="0px"
	 viewBox="0 0 595.28 283.46" style="enable-background:new 0 0 595.28 283.46;" xml:space="preserve">
<style type="text/css">
	.st0{fill:#8D1836;}
	.st1{fill:#C49A6C;}
</style>
<path class="st0" d="M304.74,43.01c1.03,0.99,2.21,1.78,3.54,2.36c1.33,0.58,2.75,0.87,4.26,0.87c1.5,0,2.94-0.29,4.31-0.87
	c1.37-0.58,2.57-1.37,3.59-2.36c1.03-0.99,1.83-2.16,2.41-3.49c0.58-1.33,0.87-2.79,0.87-4.36c0-1.57-0.29-3.04-0.87-4.41
	c-0.58-1.37-1.39-2.57-2.41-3.59c-1.03-1.03-2.22-1.83-3.59-2.41c-1.37-0.58-2.81-0.87-4.31-0.87c-1.51,0-2.93,0.29-4.26,0.87
	c-1.33,0.58-2.51,1.39-3.54,2.41c-1.03,1.03-1.85,2.22-2.46,3.59c-0.62,1.37-0.92,2.84-0.92,4.41c0,1.57,0.31,3.03,0.92,4.36
	C302.89,40.85,303.71,42.02,304.74,43.01z"/>
<path class="st0" d="M329.37,55.28c-15.74,0-28.12,4.79-37.16,14.37C284.07,78.27,280,90.04,280,104.95
	c0,13.89,4.21,25.18,12.62,33.87c0.34,0.34,0.68,0.68,1.03,1.03h-20.73c-5.89,0-10.74-1.95-14.58-5.85
	c-4.24-4.38-6.36-10.5-6.36-18.37V78.47c0-7.94-4.96-14.06-14.88-18.37c-7.12-3.15-15.19-4.72-24.22-4.72h-0.31
	c-15.81,0.07-28.19,4.82-37.16,14.27c-8.14,8.69-12.22,20.46-12.22,35.31c0,19.64,7.36,33.7,22.07,42.19
	c6.09,3.56,12.76,5.58,20.02,6.06c1.09,0.07,2.19,0.1,3.28,0.1c6.02,0,11.77-1.09,17.24-3.28c6.23-2.39,11.5-5.95,15.81-10.67
	c0.68,0.89,1.44,1.74,2.26,2.57c5.85,6.07,13.14,9.72,21.86,10.99v0.51h63.54c15.26,0,27.54-4.79,36.85-14.37
	c8.48-8.69,12.73-20.05,12.73-34.08c0-14.99-4.07-26.79-12.21-35.41C357.67,60.03,345.25,55.28,329.37,55.28z M234.02,115.63
	c-1.57,11.29-7.05,18.78-16.42,22.48c-2.87,1.16-5.85,1.74-8.93,1.74c-0.62,0-1.23-0.03-1.85-0.1c-3.69-0.21-7.22-1.27-10.57-3.18
	c-10.06-5.81-15.09-16.35-15.09-31.61c0-12.04,2.98-21.21,8.93-27.51c5.41-5.75,12.9-8.62,22.48-8.62h0.31
	c5.75,0,10.81,0.96,15.19,2.87c3.97,1.71,5.95,3.97,5.95,6.77V115.63z M351.65,131.13c-5.68,5.82-13.14,8.72-22.38,8.72
	c-8.97,0-16.32-2.98-22.07-8.93c-6.16-6.29-9.24-14.95-9.24-25.97c0-12.04,3.01-21.25,9.03-27.61c5.34-5.68,12.79-8.52,22.38-8.52
	c9.72,0,17.24,2.84,22.58,8.52c5.95,6.23,8.93,15.43,8.93,27.61C360.88,116.11,357.81,124.83,351.65,131.13z"/>
<path class="st0" d="M331.53,43.01c1.03,0.99,2.22,1.78,3.59,2.36c1.37,0.58,2.84,0.87,4.41,0.87c1.5,0,2.93-0.29,4.26-0.87
	c1.34-0.58,2.5-1.37,3.49-2.36c0.99-0.99,1.78-2.16,2.36-3.49c0.58-1.33,0.87-2.79,0.87-4.36c0-1.57-0.29-3.04-0.87-4.41
	c-0.58-1.37-1.37-2.57-2.36-3.59c-0.99-1.03-2.16-1.83-3.49-2.41c-1.33-0.58-2.75-0.87-4.26-0.87c-1.57,0-3.05,0.29-4.41,0.87
	c-1.37,0.58-2.57,1.39-3.59,2.41c-1.03,1.03-1.85,2.22-2.46,3.59c-0.62,1.37-0.92,2.84-0.92,4.41c0,1.57,0.31,3.03,0.92,4.36
	C329.68,40.85,330.5,42.02,331.53,43.01z"/>
<path class="st0" d="M494.73,164.44c-1.03-1.03-2.22-1.83-3.59-2.41c-1.37-0.58-2.81-0.87-4.31-0.87c-1.51,0-2.93,0.29-4.26,0.87
	c-1.33,0.58-2.51,1.39-3.54,2.41c-1.03,1.03-1.85,2.22-2.46,3.59c-0.62,1.37-0.92,2.84-0.92,4.41c0,1.57,0.31,3.03,0.92,4.36
	c0.62,1.33,1.44,2.5,2.46,3.49c1.03,0.99,2.21,1.78,3.54,2.36c1.33,0.58,2.75,0.87,4.26,0.87c1.5,0,2.94-0.29,4.31-0.87
	c1.37-0.58,2.57-1.37,3.59-2.36c1.03-0.99,1.83-2.16,2.41-3.49c0.58-1.33,0.87-2.79,0.87-4.36c0-1.57-0.29-3.05-0.87-4.41
	C496.56,166.67,495.76,165.47,494.73,164.44z"/>
<path class="st0" d="M548.51,34.75v86.53c0,5.54-1.88,10.16-5.64,13.86c-3.15,3.15-6.71,4.72-10.67,4.72h-8.83h-6.88
	c-5.82,0-10.64-1.95-14.47-5.85c-3.83-3.97-5.92-9.37-6.26-16.22V73.75h-18.06v41.88c0,7.94-2.12,14.1-6.36,18.48
	c-3.76,3.83-8.69,5.75-14.78,5.75h-6.06c-5.82,0-10.64-1.95-14.47-5.85c-3.7-3.83-5.78-9-6.26-15.5V73.75h-17.96v64.87
	c0.14,1.57,0.21,3.11,0.21,4.62c0,9.1-1.95,17.28-5.85,24.53c-1.71,3.15-4.11,6.57-7.19,10.26c-2.94,3.56-8.9,7.29-13.14,11.19
	v12.84c4.65-4.24,22.93-12.8,26.28-16.84c3.63-4.31,6.5-8.49,8.62-12.52c3.97-7.46,6.81-15.67,8.52-24.63
	c5.61,3.28,12.15,5.06,19.6,5.34h1.23h6.47h0.72v-0.01c11.84-0.15,21.39-3.93,28.64-11.38l0.82-0.82l0.72,0.72
	c7.33,7.6,16.91,11.42,28.74,11.49v0.01h0.31h6.88h8.83c9.92,0,19.02-1.94,28.33-8.26c6.43-4.36,12.92-11.64,12.92-23.87V34.75
	H548.51z"/>
<g>
	<path d="M201.14,177.7c0.02,0.55,0.15,0.93,0.38,1.13c0.28,0.29,0.64,0.44,1.07,0.44h0.65v3.13h-0.84
		c-0.71,0.02-1.29-0.07-1.75-0.29c-0.13,0.52-0.6,1.21-1.42,2.05c-1.38,1.41-3.18,2.12-5.42,2.12c-1.97,0-3.65-0.72-5.04-2.15
		c-1.27-1.31-1.9-3.01-1.9-5.08c0-0.55,0.04-1.08,0.13-1.59c0.08-0.51,0.29-1.23,0.65-2.15l3.15,0.79c-0.31,0.85-0.49,1.44-0.54,1.8
		c-0.06,0.36-0.09,0.75-0.09,1.15c0,1.32,0.35,2.34,1.06,3.07c0.67,0.69,1.53,1.04,2.59,1.04c1.1,0,1.98-0.34,2.64-1.01
		c0.63-0.64,0.98-1.67,1.06-3.09v-7.2h3.63V177.7z M192.46,170.92c0-0.21,0.04-0.42,0.13-0.61c0.08-0.19,0.2-0.36,0.35-0.51
		c0.15-0.15,0.31-0.26,0.5-0.34c0.19-0.08,0.39-0.12,0.59-0.12s0.41,0.04,0.6,0.12c0.19,0.08,0.36,0.19,0.51,0.34
		c0.15,0.15,0.26,0.32,0.34,0.51c0.08,0.19,0.12,0.4,0.12,0.61c0,0.22-0.04,0.43-0.12,0.62c-0.08,0.19-0.19,0.35-0.34,0.49
		c-0.15,0.14-0.32,0.25-0.51,0.33s-0.39,0.12-0.6,0.12s-0.41-0.04-0.59-0.12c-0.19-0.08-0.36-0.19-0.5-0.33
		c-0.15-0.14-0.26-0.3-0.35-0.49C192.51,171.34,192.46,171.14,192.46,170.92z"/>
	<path d="M209.48,179.27v3.13h-6.82v-3.13H209.48z"/>
	<path d="M208.91,182.4v-3.13l10.37,0.01l-0.05-0.35c-0.23-2.11-0.51-3.56-0.85-4.36c-0.48-1.11-1.27-1.67-2.37-1.67
		c-0.42,0-0.8,0.06-1.13,0.17c-0.29,0.11-0.54,0.26-0.75,0.46c-0.12,0.12-0.23,0.25-0.32,0.4c-0.11,0.16-0.28,0.56-0.51,1.19
		l-3.56-0.74c0.38-0.98,0.67-1.64,0.89-1.98c0.22-0.35,0.48-0.67,0.77-0.95c0.58-0.57,1.27-0.99,2.07-1.28
		c0.78-0.28,1.62-0.42,2.54-0.42c2.6,0,4.44,1.01,5.51,3.04c0.59,1.13,1.04,3.07,1.34,5.81l0.07,0.65h0.84v3.13H208.91z
		 M214.89,185.17c0-0.22,0.04-0.42,0.13-0.61c0.08-0.19,0.2-0.36,0.35-0.51c0.15-0.15,0.31-0.26,0.5-0.34
		c0.19-0.08,0.39-0.12,0.59-0.12s0.41,0.04,0.6,0.12c0.19,0.08,0.36,0.19,0.51,0.34c0.15,0.15,0.26,0.32,0.34,0.51
		c0.08,0.19,0.12,0.4,0.12,0.61c0,0.22-0.04,0.43-0.12,0.62s-0.19,0.35-0.34,0.49c-0.15,0.14-0.31,0.25-0.51,0.33
		c-0.19,0.08-0.39,0.12-0.6,0.12s-0.41-0.04-0.59-0.12c-0.19-0.08-0.36-0.19-0.5-0.33c-0.15-0.14-0.26-0.3-0.35-0.49
		S214.89,185.39,214.89,185.17z"/>
	<path d="M242.75,179.27h1.23v3.13h-20.8v-3.13h1.24l1.26,1.26c-1.1-1.14-1.65-2.59-1.65-4.37c0.02-1.54,0.41-2.8,1.18-3.78
		l-0.62-0.45l1.05-2.15h11.15c2,0,3.58,0.62,4.75,1.87c1.07,1.12,1.6,2.63,1.6,4.52c0,1.77-0.55,3.23-1.65,4.37
		C241.5,180.52,241.91,180.1,242.75,179.27z M232.35,173.61c-0.45-0.47-1.1-0.7-1.96-0.7c-0.85,0-1.49,0.23-1.92,0.7
		c-0.52,0.56-0.78,1.41-0.78,2.55c0,1.02,0.27,1.81,0.8,2.35c0.49,0.51,1.13,0.76,1.9,0.76c0.81,0,1.46-0.25,1.95-0.74
		c0.53-0.55,0.8-1.34,0.8-2.37C233.12,175.01,232.86,174.16,232.35,173.61z M236.38,179.27h0.43c0.78,0,1.41-0.25,1.9-0.76
		c0.53-0.54,0.79-1.33,0.79-2.35c0-1.14-0.26-1.99-0.78-2.55c-0.44-0.47-1.08-0.7-1.92-0.7h-0.36l-1.29-1.29
		c1.08,1.13,1.61,2.64,1.61,4.54c0,1.8-0.55,3.26-1.66,4.39L236.38,179.27z"/>
	<path d="M249.06,167.47v10.52c0,1.18-0.43,2.19-1.28,3.03c-0.91,0.92-2.04,1.38-3.38,1.38h-0.99v-3.13h0.99
		c0.22,0,0.43-0.1,0.63-0.3c0.26-0.25,0.39-0.58,0.39-0.98v-10.52H249.06z"/>
	<path d="M255.22,167.47v14.17h-3.63v-14.17H255.22z"/>
	<path d="M266.96,175.19c-0.05,0.25-0.07,0.53-0.07,0.84c0,1.14,0.26,1.98,0.78,2.54c0.45,0.47,1.09,0.7,1.94,0.7h6.4
		c0.85,0,1.49-0.23,1.94-0.7c0.52-0.55,0.78-1.4,0.78-2.54v-4.18h3.63v4.18c0,1.88-0.53,3.39-1.59,4.52
		c-1.17,1.24-2.75,1.86-4.76,1.86h-6.05c-2.01,0-3.59-0.62-4.76-1.86c-1.06-1.13-1.59-2.63-1.59-4.52c0-0.45,0.04-0.9,0.12-1.34
		c0.08-0.45,0.3-1.09,0.66-1.92l3.13,0.89C267.19,174.43,267.01,174.94,266.96,175.19z M269.74,172.25c0-0.21,0.04-0.42,0.13-0.61
		c0.08-0.19,0.2-0.36,0.35-0.51c0.15-0.15,0.31-0.26,0.5-0.34c0.19-0.08,0.39-0.12,0.59-0.12s0.41,0.04,0.6,0.12
		s0.36,0.19,0.51,0.34c0.15,0.15,0.26,0.32,0.34,0.51c0.08,0.19,0.12,0.4,0.12,0.61c0,0.22-0.04,0.43-0.12,0.62
		s-0.19,0.35-0.34,0.49c-0.15,0.14-0.32,0.25-0.51,0.33s-0.39,0.12-0.6,0.12s-0.41-0.04-0.59-0.12c-0.19-0.08-0.36-0.19-0.5-0.33
		c-0.15-0.14-0.26-0.3-0.35-0.49S269.74,172.47,269.74,172.25z M273.43,172.25c0-0.21,0.04-0.42,0.13-0.61
		c0.08-0.19,0.2-0.36,0.35-0.51c0.15-0.15,0.31-0.26,0.5-0.34c0.19-0.08,0.39-0.12,0.59-0.12s0.41,0.04,0.6,0.12
		c0.19,0.08,0.36,0.19,0.51,0.34c0.15,0.15,0.26,0.32,0.34,0.51c0.08,0.19,0.12,0.4,0.12,0.61c0,0.22-0.04,0.43-0.12,0.62
		s-0.19,0.35-0.34,0.49c-0.15,0.14-0.31,0.25-0.51,0.33c-0.19,0.08-0.39,0.12-0.6,0.12s-0.41-0.04-0.59-0.12
		c-0.19-0.08-0.36-0.19-0.5-0.33c-0.15-0.14-0.26-0.3-0.35-0.49S273.43,172.47,273.43,172.25z"/>
	<path d="M288.52,167.47v10.52c0,0.4,0.13,0.73,0.39,0.98c0.2,0.2,0.41,0.3,0.63,0.3h0.81v3.13h-0.81c-1.34,0-2.46-0.46-3.38-1.38
		c-0.85-0.85-1.28-1.86-1.28-3.03v-10.52H288.52z"/>
	<path d="M296.6,179.27v3.13h-6.82v-3.13H296.6z"/>
	<path d="M297.33,179.27c0.84,0.83,1.26,1.25,1.26,1.26c-1.1-1.14-1.65-2.59-1.65-4.37c0-1.89,0.53-3.4,1.59-4.52
		c1.17-1.24,2.76-1.87,4.76-1.87c2.01,0,3.6,0.62,4.77,1.86c1.06,1.12,1.59,2.63,1.59,4.53c0,1.8-0.55,3.26-1.66,4.39
		c-1.2,1.24-2.77,1.86-4.71,1.86h-7.25v-3.13H297.33z M299.5,167.58c0-0.21,0.04-0.42,0.13-0.61c0.08-0.19,0.2-0.36,0.35-0.51
		c0.15-0.15,0.31-0.26,0.5-0.34s0.39-0.12,0.59-0.12c0.21,0,0.41,0.04,0.6,0.12c0.19,0.08,0.36,0.19,0.51,0.34
		c0.15,0.15,0.26,0.32,0.34,0.51c0.08,0.19,0.12,0.4,0.12,0.61c0,0.22-0.04,0.43-0.12,0.62c-0.08,0.19-0.19,0.35-0.34,0.49
		c-0.15,0.14-0.32,0.25-0.51,0.33c-0.19,0.08-0.39,0.12-0.6,0.12c-0.21,0-0.41-0.04-0.59-0.12c-0.19-0.08-0.36-0.19-0.5-0.33
		c-0.15-0.14-0.26-0.3-0.35-0.49C299.54,168.01,299.5,167.81,299.5,167.58z M305.23,173.61c-0.44-0.47-1.09-0.7-1.95-0.7
		c-0.84,0-1.49,0.23-1.92,0.7c-0.53,0.56-0.8,1.41-0.8,2.55c0,1.01,0.27,1.8,0.81,2.35c0.49,0.51,1.13,0.76,1.9,0.76
		c0.81,0,1.46-0.25,1.94-0.74c0.54-0.55,0.81-1.34,0.81-2.37C306.02,175.01,305.76,174.16,305.23,173.61z M303.18,167.58
		c0-0.21,0.04-0.42,0.13-0.61c0.08-0.19,0.2-0.36,0.35-0.51c0.15-0.15,0.31-0.26,0.5-0.34s0.39-0.12,0.59-0.12
		c0.21,0,0.41,0.04,0.6,0.12c0.19,0.08,0.36,0.19,0.51,0.34c0.15,0.15,0.26,0.32,0.34,0.51c0.08,0.19,0.12,0.4,0.12,0.61
		c0,0.22-0.04,0.43-0.12,0.62c-0.08,0.19-0.19,0.35-0.34,0.49c-0.15,0.14-0.32,0.25-0.51,0.33c-0.19,0.08-0.39,0.12-0.6,0.12
		c-0.21,0-0.41-0.04-0.59-0.12c-0.19-0.08-0.36-0.19-0.5-0.33c-0.15-0.14-0.26-0.3-0.35-0.49
		C303.22,168.01,303.18,167.81,303.18,167.58z"/>
	<path d="M315.81,167.47v10.52c0,0.4,0.13,0.73,0.39,0.98c0.2,0.2,0.41,0.3,0.63,0.3h0.81v3.13h-0.81c-1.34,0-2.46-0.46-3.38-1.38
		c-0.85-0.85-1.28-1.86-1.28-3.03v-10.52H315.81z"/>
	<path d="M323.89,179.27v3.13h-6.82v-3.13H323.89z"/>
	<path d="M330.14,179.27v3.13h-6.82v-3.13H330.14z"/>
	<path d="M329.56,182.4v-3.13h1.53c0.46,0,0.82-0.13,1.08-0.4c0.32-0.33,0.48-0.83,0.48-1.51v-5.51h3.64v5.73
		c0.03,0.55,0.19,0.98,0.47,1.28c0.27,0.28,0.62,0.42,1.05,0.42h1.58v3.13h-1.58c-1.58,0-2.69-0.35-3.34-1.04
		c-0.66,0.69-1.79,1.04-3.39,1.04H329.56z M332.92,185.17c0-0.22,0.04-0.42,0.13-0.61c0.08-0.19,0.2-0.36,0.35-0.51
		c0.15-0.15,0.31-0.26,0.5-0.34c0.19-0.08,0.39-0.12,0.59-0.12c0.21,0,0.41,0.04,0.6,0.12c0.19,0.08,0.36,0.19,0.51,0.34
		c0.15,0.15,0.26,0.32,0.34,0.51c0.08,0.19,0.12,0.4,0.12,0.61c0,0.22-0.04,0.43-0.12,0.62c-0.08,0.19-0.19,0.35-0.34,0.49
		c-0.15,0.14-0.31,0.25-0.51,0.33s-0.39,0.12-0.6,0.12c-0.21,0-0.41-0.04-0.59-0.12c-0.19-0.08-0.36-0.19-0.5-0.33
		c-0.15-0.14-0.26-0.3-0.35-0.49C332.97,185.6,332.92,185.39,332.92,185.17z"/>
	<path d="M360.81,179.27v3.13h-0.89c-1.58,0-2.69-0.35-3.34-1.04c-0.66,0.69-1.79,1.04-3.39,1.04c-1.58,0-2.68-0.34-3.32-1.01
		c-0.68,0.68-1.82,1.01-3.42,1.01c-1.58,0-2.68-0.34-3.32-1.01c-0.68,0.68-1.82,1.01-3.42,1.01h-0.89v-3.13h0.89
		c0.46,0,0.83-0.13,1.09-0.4c0.32-0.33,0.48-0.83,0.48-1.51v-5.51h3.63v5.51c0,0.67,0.16,1.17,0.48,1.5
		c0.27,0.28,0.62,0.42,1.05,0.42c0.46,0,0.82-0.13,1.08-0.4c0.33-0.34,0.5-0.84,0.5-1.51v-5.51h3.63v5.51c0,0.67,0.16,1.17,0.48,1.5
		c0.27,0.28,0.62,0.42,1.05,0.42c0.46,0,0.82-0.13,1.08-0.4c0.32-0.33,0.48-0.83,0.48-1.51v-5.51h3.64v5.73
		c0.03,0.55,0.19,0.98,0.47,1.28c0.27,0.28,0.62,0.42,1.05,0.42H360.81z"/>
	<path d="M365.88,167.47v10.52c0,1.18-0.43,2.19-1.28,3.03c-0.91,0.92-2.04,1.38-3.38,1.38h-0.99v-3.13h0.99
		c0.22,0,0.43-0.1,0.63-0.3c0.26-0.25,0.39-0.58,0.39-0.98v-10.52H365.88z"/>
</g>
<rect x="23.4" y="195.83" class="st0" width="356.36" height="6.12"/>
<path class="st1" d="M158.83,53.88c-0.18-0.25-0.38-0.5-0.48-0.78c-0.26-0.71-0.6-1.38-1.11-1.97c-0.38-0.44-0.3-0.7,0.18-1.07
	c0.51-0.39,0.55-0.71,0.17-1.25c-0.34-0.48-0.26-0.92,0.23-1.25c0.13-0.09,0.25-0.19,0.37-0.29c-0.23-0.33-0.42-0.6-0.66-0.95
	c-0.43-0.08-0.99-0.09-1.37-0.53c-0.06-0.07-0.23-0.08-0.35-0.07c-1.1,0.09-1.93-0.47-2.69-1.1c-0.28-0.23-0.6-0.63-0.57-0.92
	c0.06-0.46-0.13-0.79-0.29-1.16c-0.28-0.66-0.93-1.06-1.28-1.67c-0.03-0.05-0.13-0.08-0.2-0.09c-0.44-0.04-0.87-0.11-1.31-0.1
	c-0.39,0.01-0.77,0.11-1.16,0.15c-0.39,0.03-0.63,0.16-0.71,0.57c-0.11,0.57-0.31,0.68-0.92,0.58c-0.44-0.07-0.86-0.19-1.3-0.26
	c-1.02-0.17-2.02-0.23-3.05,0.1c-1,0.32-2.02,0.59-2.96,1.06c-0.19,0.1-0.41,0.17-0.62,0.23c-0.73,0.19-1.26-0.11-1.45-0.81
	c-0.05-0.2-0.09-0.41-0.11-0.62c-0.05-0.47-0.07-0.93-0.12-1.4c-0.09-0.73-0.67-1.04-1.3-0.64c-0.7,0.43-1.4,0.88-1.58,1.75
	c-0.02,0.11-0.11,0.21-0.18,0.3c-0.38,0.47-0.56,1.03-0.72,1.6c-0.09,0.32-0.06,0.58,0.08,0.88c0.17,0.36,0.33,0.74,0.39,1.13
	c0.11,0.65,0.19,1.29,0.59,1.85c0.07,0.1,0.08,0.28,0.06,0.41c-0.06,0.36-0.01,0.65,0.36,0.84c0.07,0.04,0.16,0.15,0.16,0.22
	c-0.04,0.39,0.25,0.58,0.46,0.84c0.31,0.38,0.3,0.77-0.03,1.15c-0.2,0.23-0.38,0.42-0.22,0.75c0.06,0.12-0.02,0.31-0.05,0.47
	c-0.03,0.16-0.08,0.31-0.13,0.46c-0.1,0.31-0.12,0.67-0.31,0.9c-0.65,0.77-0.56,1.66-0.59,2.54c-0.01,0.4,0.03,0.79-0.02,1.18
	c-0.1,0.84-0.5,1.55-1.15,2.14c-0.37-0.02-0.76-0.05-1.15-0.06c-0.55-0.01-0.83,0.15-0.83,0.67c0,0.41-0.21,0.63-0.43,0.81
	c0.03,0.32,0.14,0.62,0.04,0.81c-0.19,0.37-0.04,0.62,0.16,0.9c0.12,0.17,0.2,0.38,0.34,0.54c0.34,0.39,0.26,0.82,0.06,1.19
	c-0.35,0.64-0.44,1.23,0.04,1.85c0.24,0.31,0.42,0.7,0.1,1.08c-0.43,0.05-0.59-0.6-1.02-0.35c-0.2,0.33-0.37,0.62-0.57,0.96
	c0.18,0.21,0.38,0.42,0.55,0.64c0.46,0.6,0.71,1.23,0.35,1.97c-0.23,0.48-0.49,0.57-0.99,0.29c-0.12-0.06-0.24-0.12-0.43-0.21
	c-0.08,0.28-0.15,0.5-0.19,0.72c-0.06,0.32,0.01,0.7-0.15,0.96c-0.43,0.67-0.46,1.41-0.62,2.13c-0.06,0.26-0.22,0.51-0.36,0.75
	c-0.11,0.2-0.28,0.38-0.4,0.58c-0.77,1.2-1.44,2.47-2.54,3.45c-0.74,0.66-1.43,1.37-2.43,1.69c-1.22,0.39-1.64,0.26-2.37-0.72
	c-0.1-0.13-0.18-0.28-0.28-0.41c-0.41-0.58-0.83-1.16-1.24-1.74c-0.75-1.07-1.5-2.14-2.24-3.22c-0.25-0.37-0.44-0.78-0.88-1.02
	c-0.17-0.09-0.25-0.33-0.35-0.51c-0.18-0.3-0.33-0.62-0.52-0.91c-0.27-0.42-0.54-0.83-0.84-1.24c-0.4-0.56-0.79-1.13-1.25-1.64
	c-1.03-1.13-2.11-2.22-3.17-3.33c-0.21-0.23-0.4-0.48-0.6-0.72c-0.12-0.15-0.24-0.3-0.38-0.43c-0.65-0.57-1.34-1.1-1.95-1.71
	c-0.66-0.65-1.46-1.09-2.34-1.27c-1.55-0.32-3.14-0.52-4.71-0.72c-0.63-0.08-1.2-0.19-1.66-0.65c-0.22-0.23-0.49-0.32-0.84-0.35
	c-0.47-0.04-0.93-0.22-1.24-0.66c-0.2-0.28-0.53-0.47-0.8-0.71c-0.2-0.17-0.41-0.32-0.59-0.51c-0.49-0.5-0.98-1-1.45-1.52
	c-0.63-0.69-1.45-1.17-2.22-1.69c-0.4-0.27-0.66-0.59-0.65-1.03c0.02-0.63-0.24-1.15-0.65-1.59c-0.56-0.6-0.72-1.25-0.42-2.01
	c0.1-0.26,0.15-0.54,0.19-0.82c0.02-0.15,0.05-0.38-0.04-0.46c-0.32-0.3-0.25-0.63-0.18-0.98c0.03-0.14-0.04-0.29-0.06-0.43
	c-0.37,0.02-0.38,0.26-0.43,0.46c-0.13,0.48-0.23,0.96-0.38,1.44c-0.15,0.49-0.42,0.64-0.89,0.71c-0.49,0.07-0.62-0.24-0.81-0.56
	c-0.13-0.24-0.29-0.53-0.52-0.64c-0.47-0.25-0.63-0.58-0.61-1.07c0.04-0.92,0.06-1.83,0.07-2.75c0-0.21-0.03-0.43-0.11-0.62
	c-0.09-0.23-0.39-0.26-0.53-0.06c-0.09,0.12-0.12,0.3-0.12,0.46c0,0.8,0.02,1.6,0.03,2.4c0,0.18-0.04,0.35-0.07,0.52
	c-1.03,0.16-1.73-0.27-2.38-0.9c0.08-0.11,0.12-0.21,0.19-0.26c0.62-0.41,0.94-0.94,0.85-1.68c-0.01-0.11,0.04-0.23,0.06-0.35
	c0.09-0.56,0.02-0.68-0.51-0.94c-0.37-0.18-0.73-0.38-1.1-0.55c-0.27-0.12-0.54-0.2-0.83,0c-0.13,0.09-0.38,0.12-0.53,0.07
	c-0.89-0.26-1.61,0.05-2.19,0.65c-0.74,0.76-0.75,2.48,0.4,2.94c0.25,0.1,0.46,0.31,0.7,0.47c-0.11,0.12-0.15,0.19-0.21,0.22
	c-0.08,0.05-0.18,0.07-0.27,0.09c-1.14,0.29-2.18,0.72-2.95,1.63c-0.15,0.18-0.35,0.33-0.55,0.47c-0.42,0.29-0.73,0.63-0.78,1.14
	c-0.03,0.33-0.23,0.44-0.55,0.45c-0.61,0.02-1.23,0.03-1.84,0.07c-0.26,0.02-0.56,0.04-0.78,0.16c-0.43,0.24-0.88,0.26-1.35,0.26
	c-0.81-0.01-1.6,0.09-2.36,0.38c-0.62,0.24-0.6,0.23-0.59,0.86c0.03,1.76,0.71,3.4,0.97,5.12c0.18,1.16,0.41,2.31,0.56,3.48
	c0.11,0.89,0.02,1.8,0.21,2.67c0.27,1.27,0.31,2.51-0.07,3.75c-0.03,0.09-0.05,0.2-0.01,0.27c0.18,0.42-0.02,0.66-0.4,0.85
	c-0.2,0.1-0.37,0.24-0.56,0.35c-1.11,0.64-2.1,1.39-2.84,2.43c-0.28,0.39-0.6,0.74-0.92,1.1c-1.37,1.52-2.69,3.07-3.78,4.78
	c-0.27,0.42-0.5,0.86-0.72,1.31c-0.18,0.35-0.28,0.75-0.48,1.08c-0.24,0.41-0.5,0.78-0.49,1.29c0,0.22-0.2,0.47-0.36,0.68
	c-0.66,0.88-1.36,1.73-2.01,2.62c-1.46,2-2.63,4.14-3.27,6.52c-0.26,0.98-0.5,1.97-0.85,2.92c-1,2.72-1.56,5.54-2.11,8.36
	c-0.31,1.57-0.42,3.17-0.63,4.76c-0.16,1.21-0.25,2.44-0.68,3.6c-0.06,0.15-0.07,0.32-0.08,0.48c-0.04,0.46-0.07,0.93-0.11,1.39
	c-0.03,0.37-0.24,0.57-0.63,0.67c-1.06,0.28-1.8,0.94-2.24,1.9c-0.05,0.11-0.12,0.21-0.16,0.32c-0.16,0.44-0.49,0.68-0.97,0.75
	c-0.61,0.1-1.11,0.4-1.44,0.91c-0.45,0.69-1.11,1.11-1.87,1.43c-0.22,0.09-0.42,0.24-0.6,0.39c-0.45,0.39-0.89,0.8-1.33,1.2
	c-0.34,0.31-0.71,0.6-0.82,1.07c0.87-0.62,1.72-1.25,2.94-1.24c-0.11,0.26-0.18,0.44-0.25,0.62c0.73-0.18,1.41-0.34,2.21-0.53
	c-0.04,0.31-0.02,0.5-0.1,0.65c-0.17,0.31-0.37,0.6-0.59,0.89c-0.38,0.5-0.72,1.02-0.78,1.65c-0.07,0.72,0.22,1.16,0.84,1.28
	c0.27-0.88,0.29-0.86,1.02-1.72c0.34-0.4,0.59-0.86,0.89-1.28c0.09-0.13,0.21-0.26,0.34-0.36c0.57-0.44,1.15-0.87,1.73-1.3
	c0.38-0.28,0.72-0.64,1.34-0.67c0.04,0.31,0.09,0.6,0.12,0.89c0.14,1.69,0.43,3.35,1.2,4.91c0.18,0.37,0.25,0.81,0.25,1.22
	c0,0.51-0.15,1.02-0.21,1.53c-0.08,0.77-0.09,1.55-0.21,2.31c-0.39,2.5-1.16,4.91-1.9,7.32c-0.58,1.91-1.33,3.73-2.76,5.25
	c-0.46,0.49-0.72,1.12-0.56,1.83c0.05,0.23,0.02,0.47,0.04,0.7c0.05,0.45-0.09,0.81-0.44,1.14c-0.88,0.84-1.19,1.96-1.36,3.07
	c-0.17,1.13-0.08,2.3-0.11,3.44c-0.03,0.91,0.17,1.78,0.59,2.59c0.2,0.4,0.24,0.81,0.15,1.23c-0.31,1.33-0.55,2.68-0.95,3.99
	c-1.08,3.58-1.91,7.19-2.42,10.88c-0.05,0.34-0.17,0.69-0.31,1.01c-0.44,1.07-0.93,2.13-1.35,3.21c-0.47,1.19-1.01,2.34-1.73,3.42
	c-0.78,1.19-1.6,2.36-1.81,3.82c-0.15,1.07-0.8,1.9-1.69,2.56c-0.53,0.39-1.03,0.81-1.52,1.23c-0.74,0.64-1.24,1.46-1.34,2.37
	c-0.15,1.38,0.12,2.72,0.85,3.95c0.2,0.35,0.35,0.67,0.23,1.06c-0.09,0.3,0.03,0.5,0.28,0.66c0.19,0.11,0.37,0.23,0.56,0.34
	c0.52,0.32,1.02,0.28,1.51-0.06c0.18-0.13,0.37-0.24,0.55-0.36c0.32-0.22,0.63-0.25,0.94,0c0.43,0.34,0.89,0.66,1.27,1.06
	c0.27,0.29,0.52,0.37,0.9,0.26c0.88-0.24,1.76-1.28,1.85-2.19c0.1-0.98,0.22-1.96,0.34-2.94c0.02-0.21,0.09-0.42,0.06-0.63
	c-0.15-1.33,0.38-2.55,0.73-3.79c0.24-0.84,0.81-1.51,1.31-2.2c0.58-0.8,0.55-1.62,0.34-2.49c-0.05-0.23-0.13-0.46-0.21-0.67
	c-0.34-0.85-0.4-1.74-0.31-2.64c0.13-1.26,0.27-2.53,0.42-3.79c0.03-0.28,0.11-0.55,0.18-0.83c0.15-0.57,0.35-1.13,0.45-1.71
	c0.32-1.79,0.72-3.55,1.39-5.25c0.28-0.72,0.34-1.51,0.55-2.26c0.15-0.52,0.4-1.01,0.57-1.52c0.46-1.41,0.86-2.85,1.36-4.25
	c0.23-0.66,0.49-1.41,0.99-1.87c0.85-0.78,1.28-1.68,1.55-2.72c0.13-0.52,0.41-1.02,0.52-1.54c0.19-0.91,0.55-1.74,0.97-2.58
	c0.58-1.14,0.83-2.35,0.32-3.61c-0.33-0.82-0.2-1.61,0.28-2.36c0.51-0.8,1.05-1.6,1.49-2.44c0.79-1.5,1.79-2.87,2.83-4.21
	c0.1-0.13,0.22-0.29,0.37-0.33c1.17-0.37,1.61-1.31,2.02-2.29c0.31-0.74,0.64-1.48,0.99-2.2c0.13-0.27,0.31-0.54,0.53-0.76
	c0.63-0.63,0.98-1.4,1.25-2.21c0.4-1.21,0.76-2.44,1.2-3.63c0.7-1.88,1.44-3.75,2.18-5.62c0.8-2.02,1.62-4.04,2.42-6.07
	c0.7-1.78,1.42-3.56,2.07-5.36c0.39-1.07,0.67-2.17,1.01-3.25c0.08-0.25,0.11-0.56,0.44-0.67c0.08,0.06,0.16,0.09,0.2,0.14
	c0.91,1.37,1.8,2.74,2.35,4.3c0.44,1.25,0.89,2.49,1.4,3.71c0.88,2.06,1.78,4.12,2.73,6.15c0.46,0.98,0.99,1.94,1.58,2.86
	c1.02,1.59,2.03,3.16,2.26,5.07c0.01,0.11,0.09,0.22,0.11,0.34c0.12,0.81,0.28,1.62,0.32,2.44c0.06,1.15,0.02,2.3,0.04,3.45
	c0,0.21,0.08,0.41,0.14,0.61c0.28,0.97,0.59,1.93,0.84,2.91c0.16,0.64,0.23,1.3,0.34,1.95c0.29,1.67,0.66,3.33,0.84,5.01
	c0.22,2.08,0.09,4.18-0.04,6.27c-0.07,1.05-0.19,2.11-0.22,3.16c-0.07,2.09-0.05,4.19-0.72,6.22c-0.09,0.28-0.12,0.63-0.02,0.89
	c0.15,0.41,0.05,0.75-0.15,1.07c-0.42,0.68-0.65,1.41-0.74,2.2c-0.04,0.39-0.17,0.78-0.27,1.17c-0.21,0.8-0.47,1.59-0.62,2.4
	c-0.09,0.47-0.08,0.98-0.02,1.46c0.11,0.9,0.18,1.76-0.55,2.5c-0.37,0.37-0.64,0.83-0.95,1.25c-0.65,0.88-1.52,1.52-2.47,2.05
	c-0.62,0.34-1.28,0.6-1.89,0.97c-0.87,0.52-1.78,0.63-2.76,0.49c-0.24-0.03-0.51-0.07-0.72,0.01c-0.85,0.29-1.59,0.73-2.04,1.54
	c-0.5,0.91-1.02,1.82-1.52,2.74c-0.5,0.92-0.78,1.88-0.46,2.92c0.57,1.82,1.14,3.64,1.93,5.39c0.29,0.64,1.06,0.85,1.66,0.44
	c0.21-0.15,0.38-0.36,0.56-0.56c0.36-0.4,0.72-0.82,1.15-1.3c0.2,0.28,0.36,0.51,0.51,0.73c0.3,0.43,0.6,0.86,0.89,1.29
	c0.22,0.33,0.49,0.35,0.81,0.15c0.16-0.1,0.35-0.19,0.47-0.33c0.4-0.47,0.8-0.94,1.16-1.45c0.23-0.33,0.4-0.7,0.57-1.06
	c0.23-0.49,0.4-1.01,0.68-1.48c0.24-0.4,0.44-0.77,0.43-1.24c-0.01-0.22,0.1-0.46,0.24-0.65c0.57-0.81,1.02-1.72,2-2.19
	c0.17-0.08,0.33-0.22,0.45-0.37c0.12-0.14,0.25-0.33,0.25-0.49c-0.03-0.6-0.04-1.22-0.19-1.8c-0.14-0.54-0.08-0.96,0.29-1.37
	c0.33-0.37,0.68-0.75,0.96-1.16c0.66-0.98,1.48-1.82,2.41-2.56c0.42-0.33,0.83-0.74,1.32-0.88c1.1-0.31,2.22-0.55,3.22-1.29
	c0.14,0.24,0.25,0.43,0.36,0.63c0.18,0.33,0.36,0.66,0.54,1c0.3,0.56,0.63,1.11,0.88,1.69c0.58,1.32,1.12,2.66,1.68,3.98
	c0.65,1.55,1.35,3.08,1.94,4.64c0.48,1.28,0.8,2.61,1.45,3.83c0.13,0.24,0.19,0.54,0.21,0.82c0.1,1.32,0.34,2.61,1.06,3.77
	c0.25,0.4,0.47,0.82,0.77,1.18c0.29,0.35,0.39,0.69,0.21,1.11c-0.09,0.22-0.18,0.44-0.22,0.67c-0.09,0.56-0.12,1.12-0.24,1.68
	c-0.35,1.7,0.44,2.3,2.05,2.22c0.62-0.03,1.22,0.03,1.81,0.24c1.64,0.56,3.31,0.62,5.01,0.31c1.02-0.19,2.01-0.46,2.74-1.24
	c0.18-0.2,0.4-0.48,0.38-0.71c-0.06-1.09-0.91-1.9-2.05-2.1c-0.25-0.04-0.54-0.15-0.7-0.31c-0.79-0.8-1.58-1.62-2.3-2.48
	c-0.47-0.56-0.92-1.18-1.21-1.84c-1.2-2.8-2.93-5.32-4.41-7.97c-0.84-1.5-1.33-3.12-2.11-4.64c-0.09-0.17-0.12-0.36-0.16-0.54
	c-0.18-0.93-0.42-1.83-0.94-2.65c-0.12-0.19-0.14-0.45-0.21-0.67c-0.15-0.5-0.29-0.99-0.44-1.49c-0.35-1.2-0.87-2.34-0.99-3.61
	c-0.04-0.51-0.2-1.02-0.34-1.51c-0.62-2.19-1.28-4.38-1.26-6.68c0-0.12-0.02-0.24-0.06-0.35c-0.43-1.22-0.87-2.44-1.56-3.56
	c-0.23-0.37-0.43-0.81-0.47-1.24c-0.2-2.01,0.12-3.98,0.65-5.93c0.14-0.49,0.18-1.01,0.26-1.52c0.03-0.23,0.04-0.47,0.05-0.7
	c0.07-1.55,0.14-3.1,0.22-4.65c0.03-0.52,0.07-1.03,0.12-1.55c0.1-1.05,0.26-2.07,0.14-3.15c-0.18-1.65-0.2-3.33-0.16-4.99
	c0.05-1.93,0.91-3.64,1.95-5.26c0.37-0.58,1-0.85,1.67-0.92c1.64-0.16,3.28-0.31,4.92-0.36c1.22-0.04,2.39-0.23,3.56-0.53
	c1.28-0.33,1.41-0.5,1.05-1.72c-0.2-0.66-0.05-1.24,0.33-1.74c0.44-0.59,0.97-1.12,1.51-1.63c0.83-0.8,1.96-1.25,2.77-2.09
	c0.15-0.16,0.49-0.21,0.74-0.21c0.86,0,1.72,0.04,2.57,0.09c0.88,0.05,1.62,0.36,2.04,1.16c0.26,0.51,0.44,1.06,0.75,1.53
	c0.82,1.25,1.69,2.48,2.55,3.71c0.33,0.48,0.62,0.98,0.54,1.57c-0.18,1.36,0.29,2.6,0.73,3.85c0.07,0.19,0.2,0.4,0.36,0.51
	c0.87,0.6,1.27,1.44,1.5,2.42c0.39,1.67,0.69,3.36,1.33,4.98c0.87,2.17,1.62,4.38,3.11,6.27c0.03,0.04,0.05,0.08,0.07,0.12
	c0.48,0.92,0.95,1.85,1.43,2.77c0.08,0.14,0.19,0.27,0.28,0.41c0.19,0.27,0.42,0.52,0.56,0.82c0.24,0.54,0.4,1.11,0.65,1.64
	c0.33,0.72,0.73,1.42,1.08,2.14c0.19,0.4,0.49,0.84,0.45,1.23c-0.1,1.05,0.05,2.06,0.14,3.09c0.07,0.81,0.31,1.57,0.7,2.28
	c0.75,1.35,1.52,2.69,2.25,4.04c0.98,1.81,1.97,3.62,2.34,5.67c0.03,0.16,0.11,0.31,0.17,0.46c1.15,3.03,2.36,6.03,3.43,9.08
	c0.82,2.34,1.59,4.71,1.67,7.2c0.04,1.3,0.58,2.16,1.82,2.71c0.95,0.42,1.2,1.35,1.27,2.24c0.04,0.55-0.23,1.14-0.42,1.69
	c-0.1,0.3-0.2,0.57-0.09,0.88c0.09,0.27,0.14,0.55,0.24,0.81c0.22,0.64,0.65,1.09,1.34,1.29c0.57,0.16,1.14,0.3,1.69,0.49
	c2.18,0.77,4.44,0.93,6.75,0.88c0.9-0.02,1.68-0.35,2.42-0.77c0.39-0.22,0.79-0.53,1.02-0.9c0.41-0.66,0.94-1.2,1.48-1.74
	c0.11-0.12,0.23-0.26,0.27-0.4c0.22-0.91-0.28-1.8-1.2-2.16c-0.63-0.25-1.29-0.46-1.9-0.76c-0.8-0.39-1.64-0.62-2.54-0.66
	c-0.53-0.02-0.98-0.25-1.41-0.55c-1.14-0.81-1.67-1.99-2.17-3.2c-0.25-0.61-0.47-1.28-0.91-1.74c-1.03-1.07-2.09-2.12-2.77-3.44
	c-0.55-1.05-1.19-2.07-1.59-3.17c-0.57-1.6-1.15-3.2-1.87-4.74c-0.16-0.34-0.29-0.71-0.35-1.07c-0.14-0.95-0.51-1.81-0.98-2.64
	c-0.38-0.68-0.78-1.37-0.76-2.18c0-0.13-0.07-0.27-0.12-0.4c-0.46-1.3-0.7-2.63-0.65-4.01c0.04-1.1,0.01-2.21,0.01-3.31
	c0-0.68,0.04-1.36-0.01-2.04c-0.04-0.54,0.01-1.11-0.37-1.6c-0.12-0.15-0.13-0.39-0.18-0.6c-0.19-0.89-0.48-1.72-1.17-2.39
	c-0.51-0.5-1.07-1-1.44-1.6c-0.72-1.17-1.39-2.38-1.95-3.63c-0.47-1.05-0.75-2.18-1.14-3.27c-0.23-0.64-0.57-1.25-0.74-1.91
	c-0.3-1.18-0.46-2.4-0.74-3.59c-0.31-1.27-0.39-2.55-0.43-3.84c-0.04-1.1,0.01-2.22-0.14-3.31c-0.21-1.51-0.02-3,0.12-4.49
	c0.16-1.62-0.04-3.19-0.33-4.75c-0.31-1.62-0.74-3.22-0.65-4.88c0.07-1.27,0.17-2.53,0.28-3.8c0.06-0.61,0.09-1.24,0.29-1.81
	c0.39-1.08,0.5-2.2,0.73-3.31c0.08-0.39-0.02-0.83,0.14-1.18c0.23-0.51,0.19-1.01,0.16-1.52c-0.01-0.16-0.05-0.34,0-0.49
	c0.36-1.14,0.35-2.32,0.33-3.49c0-0.42,0.08-0.77,0.34-1.12c0.23-0.3,0.43-0.64,0.56-0.99c0.46-1.18,1.29-2.1,2.24-2.93
	c1.23-1.08,2.25-2.3,2.99-3.74c0.47-0.92,0.83-1.87,0.82-2.9c0-0.44,0.13-0.83,0.34-1.21c0.39-0.68,0.8-1.35,1.12-2.06
	c0.56-1.23,1.09-2.47,1.56-3.73c0.34-0.9,0.61-1.84,0.86-2.77c0.25-0.91,0.43-1.83,0.65-2.75c0.1-0.41,0.3-0.74,0.9-0.83
	c-0.38-0.42-0.15-0.69,0.12-0.96c0.25-0.25,0.4-0.51,0.22-0.88c-0.05-0.11,0.01-0.35,0.11-0.43c0.41-0.34,0.58-0.79,0.78-1.25
	c0.44-1.05,0.92-2.08,1.41-3.1c0.13-0.27,0.31-0.57,0.55-0.73c0.25-0.17,0.43-0.34,0.6-0.58c0.3-0.41,0.84-0.57,1.31-0.38
	c0.61,0.24,1.21,0.5,1.59,1.08c0.24,0.38,0.57,0.7,0.86,1.05c0.21,0.26,0.43,0.51,0.34,0.89c-0.06,0.25,0.09,0.38,0.33,0.47
	c0.56,0.22,0.55,0.23,0.48,0.76c-0.14,1.07-0.33,2.14-0.4,3.22c-0.04,0.67,0.08,1.35,0.16,2.03c0.03,0.23,0.15,0.47,0.46,0.47
	c0.35,0,0.45-0.28,0.48-0.53c0.06-0.54,0.09-1.08,0.11-1.62c0.03-0.75,0.02-1.5,0.06-2.26c0.01-0.22,0.1-0.43,0.17-0.71
	c0.36,0.1,0.63,0.17,0.95,0.26c0.28-0.34,0.68-0.46,1.14-0.5c0.23-0.02,0.45-0.2,0.78-0.36c-0.38-0.35-0.66-0.6-0.94-0.86
	c-0.17-0.16-0.43-0.32-0.46-0.52c-0.12-0.7-0.72-1.09-1.19-1.46c-0.87-0.69-1.51-1.53-2.12-2.4c-0.27-0.38-0.46-0.81-1.06-0.84
	c0.51-0.74,1-1.42,1.45-2.11c0.47-0.71,0.92-1.44,1.38-2.16c0.14-0.22,0.32-0.43,0.41-0.67c0.21-0.59,0.62-0.78,1.24-0.71
	c0.89,0.1,1.53-0.31,2.12-0.91c0.98-1,1.45-2.19,1.47-3.52c0.01-0.53,0.19-0.88,0.55-1.24C159.14,54.47,159.12,54.28,158.83,53.88z"
	/>
<path class="st1" d="M42.16,126.74c0.01-0.05-0.06-0.11-0.11-0.21c-0.16,0.15-0.29,0.26-0.48,0.44
	C41.96,127.1,42.13,127.01,42.16,126.74z"/>
<path class="st1" d="M39.96,122.07c-0.02,0.15-0.04,0.31-0.06,0.46c0.05,0.01,0.1,0.01,0.15,0.02c0.02-0.16,0.03-0.31,0.05-0.47
	C40.06,122.08,40.01,122.07,39.96,122.07z"/>
<g>
	<path class="st0" d="M30.85,220.06v1.06c-0.81,0-1.22,0.29-1.22,0.88v19.52h14.27c0.42,0,0.77-0.11,1.06-0.32
		c0.28-0.21,0.42-0.52,0.42-0.91h0.95v6.16h-0.95c0-0.31-0.14-0.49-0.42-0.53c-0.28-0.04-0.63-0.06-1.06-0.06H23.18v-1.06
		c0.92,0,1.38-0.29,1.38-0.88V222c0-0.59-0.46-0.88-1.38-0.88v-1.06H30.85z"/>
	<path class="st0" d="M65.21,244.8c0.42-0.08,0.77-0.3,1.03-0.67c0.26-0.37,0.47-0.71,0.61-1.03l7.88-19.05
		c0.21-0.55,0.38-0.99,0.5-1.32s0.19-0.65,0.19-0.97c0-0.23-0.04-0.38-0.13-0.44c-0.09-0.06-0.19-0.13-0.29-0.21v-1.06h7.98v1.06
		c-0.11,0.08-0.22,0.14-0.34,0.18c-0.12,0.04-0.19,0.2-0.19,0.47c0,0.23,0.08,0.52,0.24,0.85s0.33,0.71,0.5,1.14l8.56,19.93
		c0.18,0.35,0.37,0.61,0.58,0.76c0.21,0.16,0.44,0.27,0.69,0.35v1.06h-7.51v-0.88c0.18,0,0.36-0.06,0.56-0.18
		c0.19-0.12,0.29-0.33,0.29-0.64c0-0.23-0.04-0.45-0.11-0.65c-0.07-0.19-0.16-0.45-0.26-0.76l-1.43-3.34H73.25l-1.48,3.17
		c-0.14,0.31-0.26,0.6-0.34,0.85c-0.09,0.25-0.13,0.48-0.13,0.67c0,0.31,0.09,0.51,0.26,0.59c0.18,0.08,0.42,0.12,0.74,0.12v1.06
		h-7.08V244.8z M82.87,235.07l-4.28-9.85l-3.75,9.85H82.87z"/>
	<path class="st0" d="M114.6,222c0-0.31-0.13-0.54-0.4-0.67c-0.26-0.14-0.54-0.21-0.82-0.21v-1.06h16.44c1.34,0,2.49,0.18,3.46,0.53
		c0.97,0.35,1.78,0.83,2.43,1.44c0.65,0.61,1.14,1.3,1.45,2.08c0.32,0.78,0.48,1.6,0.48,2.46c0,0.7-0.11,1.36-0.32,1.96
		c-0.21,0.61-0.48,1.15-0.82,1.64c-0.34,0.49-0.71,0.93-1.11,1.32c-0.41,0.39-0.82,0.7-1.24,0.94v0.06
		c0.49,0.23,0.99,0.55,1.48,0.94c0.49,0.39,0.93,0.86,1.32,1.41c0.39,0.55,0.7,1.17,0.95,1.88c0.25,0.7,0.37,1.47,0.37,2.29
		c0,0.94-0.16,1.82-0.48,2.64c-0.32,0.82-0.82,1.54-1.51,2.17c-0.69,0.63-1.59,1.12-2.7,1.5c-1.11,0.37-2.44,0.56-3.99,0.56h-16.23
		v-1.06c0.28,0,0.56-0.07,0.82-0.21c0.26-0.14,0.4-0.36,0.4-0.67V222z M129.08,230.26c0.85,0,1.64-0.2,2.38-0.59
		c0.74-0.39,1.11-1.19,1.11-2.4c0-0.63-0.11-1.12-0.32-1.5c-0.21-0.37-0.48-0.66-0.79-0.88c-0.32-0.21-0.69-0.35-1.11-0.41
		s-0.85-0.09-1.27-0.09h-9.41v5.86H129.08z M128.98,241.52c1.62,0,2.73-0.29,3.33-0.88c0.6-0.59,0.9-1.41,0.9-2.46
		c0-1.21-0.39-2.11-1.16-2.7c-0.78-0.59-2.08-0.88-3.91-0.88h-8.46v6.92H128.98z"/>
	<path class="st0" d="M176.56,220.06c3.14,0,5.59,0.58,7.35,1.73c1.76,1.15,2.64,3.12,2.64,5.89c0,1.06-0.18,1.99-0.53,2.81
		c-0.35,0.82-0.82,1.53-1.4,2.14c-0.58,0.61-1.23,1.09-1.93,1.47c-0.71,0.37-1.43,0.66-2.17,0.85l5.18,8.38
		c0.28,0.43,0.59,0.75,0.93,0.97c0.33,0.21,0.7,0.38,1.08,0.5v1.06h-8.09v-1.06c0.46,0,0.69-0.18,0.69-0.53c0-0.39-0.26-1-0.79-1.82
		l-4.18-6.92H168v8.38c0,0.31,0.11,0.54,0.34,0.67c0.23,0.14,0.45,0.21,0.66,0.21v1.06h-7.03v-1.06c0.63,0,0.95-0.29,0.95-0.88V222
		c0-0.59-0.32-0.88-0.95-0.88v-1.06H176.56z M176.46,231.2c3.45,0,5.18-1.21,5.18-3.63c0-0.98-0.41-1.75-1.24-2.32
		c-0.83-0.57-2.14-0.85-3.94-0.85h-8.35v6.8H176.46z"/>
	<path class="st0" d="M230.75,225.51c0-0.74-0.55-1.11-1.64-1.11h-12.9v5.86h8.14c0.6,0,1.04-0.05,1.32-0.15
		c0.28-0.1,0.42-0.36,0.42-0.79h0.95v6.21H226c0.11-0.43-0.04-0.69-0.42-0.79c-0.39-0.1-0.93-0.15-1.64-0.15h-7.72v6.92h13.54
		c0.42,0,0.77-0.11,1.06-0.32c0.28-0.21,0.42-0.5,0.42-0.85h0.95v6.16h-0.95c0-0.35-0.14-0.55-0.42-0.59
		c-0.28-0.04-0.63-0.06-1.06-0.06h-19.4v-1.06c0.18,0,0.35-0.07,0.53-0.21c0.18-0.14,0.26-0.36,0.26-0.67V222
		c0-0.31-0.09-0.54-0.26-0.67c-0.18-0.14-0.35-0.21-0.53-0.21v-1.06h18.77c1.09,0,1.64-0.35,1.64-1.06h0.95v6.51H230.75z"/>
	<path class="st0" d="M276.17,228.56l-0.63-0.41c0.07-0.39,0.11-0.61,0.11-0.64c0-0.35-0.23-0.73-0.69-1.14
		c-0.46-0.41-1.06-0.79-1.8-1.14c-0.74-0.35-1.58-0.64-2.51-0.85c-0.93-0.21-1.88-0.32-2.83-0.32c-1.3,0-2.54,0.17-3.7,0.5
		c-1.16,0.33-2.19,0.86-3.07,1.58c-0.88,0.72-1.59,1.65-2.11,2.79c-0.53,1.13-0.79,2.52-0.79,4.16s0.28,3.02,0.85,4.13
		c0.56,1.11,1.3,2.01,2.19,2.7c0.9,0.68,1.89,1.18,2.99,1.5c1.09,0.31,2.15,0.47,3.17,0.47c1.52,0,2.95-0.12,4.31-0.35
		c1.36-0.23,2.6-0.68,3.73-1.35v-3.69h-5.45c-0.39,0-0.72,0.09-1,0.26c-0.28,0.18-0.46,0.5-0.53,0.97h-0.95v-6.04h0.95
		c0.07,0.39,0.25,0.64,0.53,0.76c0.28,0.12,0.62,0.18,1,0.18h10.36v1.06c-0.32,0.16-0.53,0.33-0.63,0.53
		c-0.11,0.2-0.16,0.49-0.16,0.88v5.57c0,0.35,0.04,0.6,0.13,0.73c0.09,0.14,0.31,0.28,0.66,0.44v0.7c-0.32,0.23-0.82,0.56-1.51,0.97
		c-0.69,0.41-1.55,0.81-2.59,1.2c-1.04,0.39-2.25,0.71-3.62,0.97c-1.37,0.25-2.91,0.38-4.6,0.38c-2.29,0-4.36-0.28-6.21-0.85
		s-3.42-1.42-4.71-2.55c-1.29-1.13-2.27-2.51-2.96-4.13c-0.69-1.62-1.03-3.47-1.03-5.54c0-2.07,0.34-3.92,1.03-5.54
		c0.69-1.62,1.67-3.01,2.96-4.16c1.29-1.15,2.85-2.03,4.71-2.64s3.92-0.91,6.21-0.91c1.37,0,2.59,0.14,3.65,0.41
		c1.06,0.27,1.97,0.57,2.75,0.88c0.81,0.31,1.46,0.61,1.96,0.88c0.49,0.27,0.86,0.41,1.11,0.41c0.28,0,0.49-0.03,0.63-0.09
		c0.14-0.06,0.32-0.19,0.53-0.38l0.63,0.35L276.17,228.56z"/>
	<path class="st0" d="M300.23,244.8c0.42-0.08,0.77-0.3,1.03-0.67c0.26-0.37,0.47-0.71,0.61-1.03l7.88-19.05
		c0.21-0.55,0.38-0.99,0.5-1.32c0.12-0.33,0.18-0.65,0.18-0.97c0-0.23-0.04-0.38-0.13-0.44c-0.09-0.06-0.19-0.13-0.29-0.21v-1.06
		h7.98v1.06c-0.11,0.08-0.22,0.14-0.34,0.18c-0.12,0.04-0.18,0.2-0.18,0.47c0,0.23,0.08,0.52,0.24,0.85
		c0.16,0.33,0.33,0.71,0.5,1.14l8.57,19.93c0.18,0.35,0.37,0.61,0.58,0.76c0.21,0.16,0.44,0.27,0.69,0.35v1.06h-7.51v-0.88
		c0.18,0,0.36-0.06,0.56-0.18c0.19-0.12,0.29-0.33,0.29-0.64c0-0.23-0.04-0.45-0.11-0.65c-0.07-0.19-0.16-0.45-0.26-0.76l-1.43-3.34
		h-11.32l-1.48,3.17c-0.14,0.31-0.26,0.6-0.34,0.85c-0.09,0.25-0.13,0.48-0.13,0.67c0,0.31,0.09,0.51,0.26,0.59
		c0.18,0.08,0.42,0.12,0.74,0.12v1.06h-7.08V244.8z M317.89,235.07l-4.28-9.85l-3.75,9.85H317.89z"/>
	<path class="st0" d="M355.21,243.92c0,0.31,0.08,0.54,0.24,0.67c0.16,0.14,0.34,0.21,0.55,0.21v1.06h-6.66v-1.06
		c0.21,0,0.4-0.07,0.56-0.21c0.16-0.14,0.24-0.36,0.24-0.67V222c0-0.31-0.08-0.54-0.24-0.67c-0.16-0.14-0.34-0.21-0.56-0.21v-1.06
		h6.66v1.06c-0.21,0-0.4,0.07-0.55,0.21c-0.16,0.14-0.24,0.36-0.24,0.67v8.27h14.17V222c0-0.31-0.08-0.54-0.24-0.67
		c-0.16-0.14-0.34-0.21-0.56-0.21v-1.06h6.66v1.06c-0.21,0-0.4,0.07-0.55,0.21c-0.16,0.14-0.24,0.36-0.24,0.67v21.93
		c0,0.31,0.08,0.54,0.24,0.67c0.16,0.14,0.34,0.21,0.55,0.21v1.06h-6.66v-1.06c0.21,0,0.4-0.07,0.56-0.21
		c0.16-0.14,0.24-0.36,0.24-0.67v-8.85h-14.17V243.92z"/>
</g>
<g>
</g>
<g>
</g>
<g>
</g>
<g>
</g>
<g>
</g>
<g>
</g>
</svg>
